<svg width="60" height="61" viewBox="0 0 60 61" fill="none" xmlns="http://www.w3.org/2000/svg">
    <path
        d="M48.9153 31.7758C48.1545 31.7758 47.4078 31.8586 46.6848 32.0165C48.6489 29.0977 49.7902 25.712 49.9897 22.1508H50.7033C51.3347 22.1508 51.8466 21.6389 51.8466 21.0075C51.8466 20.3761 51.3347 19.8642 50.7033 19.8642H49.9883C49.386 9.36078 40.6514 1 29.9997 1C19.3481 1 10.6136 9.36078 10.0114 19.8642H9.29631C8.66487 19.8642 8.15301 20.3761 8.15301 21.0075C8.15301 21.6389 8.66487 22.1508 9.29631 22.1508H10.0097C10.2805 26.9841 12.2857 31.4942 15.7273 34.9524L23.383 42.6449V50.8567C21.6946 49.4908 19.5744 48.7227 17.3271 48.7227C14.3407 48.7227 11.5828 50.0751 9.7614 52.3877C8.96795 52.0544 8.11357 51.8812 7.24341 51.8812C3.65267 51.8813 0.731445 54.8025 0.731445 58.3933C0.731445 59.0246 1.2433 59.5366 1.87474 59.5366H33.3987C35.1889 59.5366 36.6454 58.0803 36.6454 56.29V43.3018H41.9318C42.5633 43.3018 43.0751 42.7899 43.0751 42.1585C43.0751 41.5272 42.5633 41.0152 41.9318 41.0152H33.4567C33.9681 38.989 35.8063 37.4846 37.9892 37.4846C38.8782 37.4846 39.7439 37.7364 40.4928 38.2128C40.7499 38.3763 41.0614 38.4304 41.3586 38.3633C41.6557 38.296 41.9136 38.1131 42.0754 37.8551C43.563 35.4802 46.1199 34.0624 48.9154 34.0624C52.9855 34.0624 56.3611 37.0924 56.905 41.0152H52.2216C51.5901 41.0152 51.0783 41.5272 51.0783 42.1585C51.0783 42.7899 51.5901 43.3018 52.2216 43.3018H58.124C58.747 43.3018 59.2542 42.8033 59.2671 42.1825C59.2677 42.1647 59.2681 42.1468 59.2681 42.1286C59.268 36.4201 54.6237 31.7758 48.9153 31.7758ZM31.0026 41.0152H28.9968L26.5999 33.7863C25.9362 31.7849 25.442 29.3172 25.1517 26.6383C26.4546 27.7616 28.1485 28.4433 29.9997 28.4433C31.851 28.4433 33.5449 27.7617 34.8478 26.6383C34.5574 29.3171 34.0631 31.7848 33.3995 33.7863L31.0026 41.0152ZM29.9997 3.28659C30.8214 3.28659 32.1952 4.52992 33.3627 8.03434C34.4222 11.2144 35.0427 15.3793 35.1341 19.8642H24.8656C24.9569 15.3792 25.5775 11.2144 26.637 8.03422C27.8043 4.53003 29.1781 3.28659 29.9997 3.28659ZM35.0192 22.1508C34.4977 24.4414 32.4459 26.1566 29.9997 26.1566C27.5535 26.1566 25.5018 24.4414 24.9802 22.1508H35.0192ZM47.697 19.8642H37.421C37.3278 15.1352 36.6656 10.7143 35.532 7.31155C35.0244 5.78788 34.4747 4.61806 33.9121 3.72218C41.451 5.42626 47.1839 11.9452 47.697 19.8642ZM47.6039 22.1508C47.0824 24.4414 45.0306 26.1566 42.5844 26.1566C40.1382 26.1566 38.0865 24.4414 37.5649 22.1508H47.6039ZM26.0874 3.72229C25.5247 4.61818 24.9751 5.788 24.4675 7.31166C23.3339 10.7143 22.6717 15.1353 22.5785 19.8643H12.3025C12.8156 11.9452 18.5485 5.42626 26.0874 3.72229ZM22.4346 22.1508C21.913 24.4414 19.8612 26.1566 17.4151 26.1566C14.9689 26.1566 12.9171 24.4414 12.3955 22.1508H22.4346ZM13.4091 27.2668C14.5662 28.0101 15.9407 28.4431 17.4151 28.4431C19.5312 28.4431 21.4421 27.5531 22.7974 26.1296C23.0868 29.2566 23.6423 32.1315 24.4296 34.5059L26.5878 41.0152H24.9871L17.3482 33.3395C15.5988 31.5819 14.2692 29.5168 13.4091 27.2668ZM7.24341 54.1679C8.04703 54.1679 8.82961 54.3955 9.50667 54.8262C9.76369 54.9897 10.0753 55.0439 10.3724 54.9767C10.6695 54.9094 10.9274 54.7265 11.0892 54.4685C12.4457 52.3025 14.7777 51.0094 17.3271 51.0094C19.7641 51.0094 22.0058 52.1929 23.383 54.1893V56.2901C23.383 56.6242 23.4338 56.9466 23.528 57.2501H3.17523C3.67497 55.4738 5.30953 54.1679 7.24341 54.1679ZM34.3588 56.29C34.3588 56.8193 33.9281 57.25 33.3987 57.25H26.6298C26.1004 57.25 25.6697 56.8193 25.6697 56.29V50.3902H34.3588V56.29ZM34.3588 43.3018V48.1037H25.6697V43.3018H34.3588ZM35.1369 35.8118L35.5699 34.5059C36.3571 32.1315 36.9125 29.2566 37.202 26.1296C38.5574 27.5532 40.4683 28.4431 42.5844 28.4431C44.0589 28.4431 45.4333 28.0099 46.5904 27.2668C45.7302 29.5167 44.4005 31.5818 42.6513 33.3395L40.3796 35.6221C39.618 35.3433 38.8102 35.1979 37.9891 35.1979C36.973 35.1981 36.0081 35.4187 35.1369 35.8118Z"
        fill="#A5A9B5" />
    <path
        d="M47.0771 41.0152C46.7753 41.0152 46.4814 41.1375 46.2676 41.3502C46.055 41.5629 45.9338 41.8578 45.9338 42.1585C45.9338 42.4592 46.055 42.7542 46.2676 42.9667C46.4814 43.1794 46.7753 43.3018 47.0771 43.3018C47.3778 43.3018 47.6716 43.1795 47.8854 42.9667C48.0981 42.7542 48.2204 42.4592 48.2204 42.1585C48.2204 41.8578 48.0981 41.5629 47.8854 41.3502C47.6728 41.1375 47.3778 41.0152 47.0771 41.0152Z"
        fill="#A5A9B5" />
    <path
        d="M48.9153 31.7758C48.1545 31.7758 47.4078 31.8586 46.6848 32.0165C48.6489 29.0977 49.7902 25.712 49.9897 22.1508H50.7033C51.3347 22.1508 51.8466 21.6389 51.8466 21.0075C51.8466 20.3761 51.3347 19.8642 50.7033 19.8642H49.9883C49.386 9.36078 40.6514 1 29.9997 1C19.3481 1 10.6136 9.36078 10.0114 19.8642H9.29631C8.66487 19.8642 8.15301 20.3761 8.15301 21.0075C8.15301 21.6389 8.66487 22.1508 9.29631 22.1508H10.0097C10.2805 26.9841 12.2857 31.4942 15.7273 34.9524L23.383 42.6449V50.8567C21.6946 49.4908 19.5744 48.7227 17.3271 48.7227C14.3407 48.7227 11.5828 50.0751 9.7614 52.3877C8.96795 52.0544 8.11357 51.8812 7.24341 51.8812C3.65267 51.8813 0.731445 54.8025 0.731445 58.3933C0.731445 59.0246 1.2433 59.5366 1.87474 59.5366H33.3987C35.1889 59.5366 36.6454 58.0803 36.6454 56.29V43.3018H41.9318C42.5633 43.3018 43.0751 42.7899 43.0751 42.1585C43.0751 41.5272 42.5633 41.0152 41.9318 41.0152H33.4567C33.9681 38.989 35.8063 37.4846 37.9892 37.4846C38.8782 37.4846 39.7439 37.7364 40.4928 38.2128C40.7499 38.3763 41.0614 38.4304 41.3586 38.3633C41.6557 38.296 41.9136 38.1131 42.0754 37.8551C43.563 35.4802 46.1199 34.0624 48.9154 34.0624C52.9855 34.0624 56.3611 37.0924 56.905 41.0152H52.2216C51.5901 41.0152 51.0783 41.5272 51.0783 42.1585C51.0783 42.7899 51.5901 43.3018 52.2216 43.3018H58.124C58.747 43.3018 59.2542 42.8033 59.2671 42.1825C59.2677 42.1647 59.2681 42.1468 59.2681 42.1286C59.268 36.4201 54.6237 31.7758 48.9153 31.7758ZM31.0026 41.0152H28.9968L26.5999 33.7863C25.9362 31.7849 25.442 29.3172 25.1517 26.6383C26.4546 27.7616 28.1485 28.4433 29.9997 28.4433C31.851 28.4433 33.5449 27.7617 34.8478 26.6383C34.5574 29.3171 34.0631 31.7848 33.3995 33.7863L31.0026 41.0152ZM29.9997 3.28659C30.8214 3.28659 32.1952 4.52992 33.3627 8.03434C34.4222 11.2144 35.0427 15.3793 35.1341 19.8642H24.8656C24.9569 15.3792 25.5775 11.2144 26.637 8.03422C27.8043 4.53003 29.1781 3.28659 29.9997 3.28659ZM35.0192 22.1508C34.4977 24.4414 32.4459 26.1566 29.9997 26.1566C27.5535 26.1566 25.5018 24.4414 24.9802 22.1508H35.0192ZM47.697 19.8642H37.421C37.3278 15.1352 36.6656 10.7143 35.532 7.31155C35.0244 5.78788 34.4747 4.61806 33.9121 3.72218C41.451 5.42626 47.1839 11.9452 47.697 19.8642ZM47.6039 22.1508C47.0824 24.4414 45.0306 26.1566 42.5844 26.1566C40.1382 26.1566 38.0865 24.4414 37.5649 22.1508H47.6039ZM26.0874 3.72229C25.5247 4.61818 24.9751 5.788 24.4675 7.31166C23.3339 10.7143 22.6717 15.1353 22.5785 19.8643H12.3025C12.8156 11.9452 18.5485 5.42626 26.0874 3.72229ZM22.4346 22.1508C21.913 24.4414 19.8612 26.1566 17.4151 26.1566C14.9689 26.1566 12.9171 24.4414 12.3955 22.1508H22.4346ZM13.4091 27.2668C14.5662 28.0101 15.9407 28.4431 17.4151 28.4431C19.5312 28.4431 21.4421 27.5531 22.7974 26.1296C23.0868 29.2566 23.6423 32.1315 24.4296 34.5059L26.5878 41.0152H24.9871L17.3482 33.3395C15.5988 31.5819 14.2692 29.5168 13.4091 27.2668ZM7.24341 54.1679C8.04703 54.1679 8.82961 54.3955 9.50667 54.8262C9.76369 54.9897 10.0753 55.0439 10.3724 54.9767C10.6695 54.9094 10.9274 54.7265 11.0892 54.4685C12.4457 52.3025 14.7777 51.0094 17.3271 51.0094C19.7641 51.0094 22.0058 52.1929 23.383 54.1893V56.2901C23.383 56.6242 23.4338 56.9466 23.528 57.2501H3.17523C3.67497 55.4738 5.30953 54.1679 7.24341 54.1679ZM34.3588 56.29C34.3588 56.8193 33.9281 57.25 33.3987 57.25H26.6298C26.1004 57.25 25.6697 56.8193 25.6697 56.29V50.3902H34.3588V56.29ZM34.3588 43.3018V48.1037H25.6697V43.3018H34.3588ZM35.1369 35.8118L35.5699 34.5059C36.3571 32.1315 36.9125 29.2566 37.202 26.1296C38.5574 27.5532 40.4683 28.4431 42.5844 28.4431C44.0589 28.4431 45.4333 28.0099 46.5904 27.2668C45.7302 29.5167 44.4005 31.5818 42.6513 33.3395L40.3796 35.6221C39.618 35.3433 38.8102 35.1979 37.9891 35.1979C36.973 35.1981 36.0081 35.4187 35.1369 35.8118Z"
        stroke="#A5A9B5" />
    <path
        d="M47.0771 41.0152C46.7753 41.0152 46.4814 41.1375 46.2676 41.3502C46.055 41.5629 45.9338 41.8578 45.9338 42.1585C45.9338 42.4592 46.055 42.7542 46.2676 42.9667C46.4814 43.1794 46.7753 43.3018 47.0771 43.3018C47.3778 43.3018 47.6716 43.1795 47.8854 42.9667C48.0981 42.7542 48.2204 42.4592 48.2204 42.1585C48.2204 41.8578 48.0981 41.5629 47.8854 41.3502C47.6728 41.1375 47.3778 41.0152 47.0771 41.0152Z"
        stroke="#A5A9B5" />
</svg>
